<svg width="138" height="26" viewBox="0 0 138 26" fill="none" xmlns="http://www.w3.org/2000/svg">
<path d="M120.642 0.333984C120.145 0.333984 119.743 0.736396 119.743 1.2326V7.5351H136.391L128.809 0.334566L120.642 0.333984Z" fill="#18A7B9"/>
<path d="M137.001 9.44102C137.001 8.94364 136.602 8.54297 136.102 8.54297H129.801V25.1917L136.998 17.6068L137.001 9.44102Z" fill="#18A7B9"/>
<path d="M127.891 25.7952C128.386 25.7952 128.789 25.3923 128.789 24.8949V18.5947H112.14L119.723 25.7941L127.891 25.7952Z" fill="#18A7B9"/>
<path d="M111.532 16.6888C111.532 17.1856 111.934 17.5904 112.432 17.5904H118.732V0.94043L111.533 8.5231L111.532 16.6888Z" fill="#18A7B9"/>
<path d="M35.2228 3.37261V11.0612H24.5112V3.37261L20.6099 3.36914V22.7554H24.5112V14.427H35.2228V22.7554H39.1306V3.37261H35.2228Z" fill="#18A7B9"/>
<path d="M87.125 3.37305V22.7513H104.241L102.073 19.3397H91.0374V14.4274H101.724V11.1416H91.0374V6.70465H102.055L104.178 3.37305H87.125Z" fill="#18A7B9"/>
<path d="M6.10796 3.36816C2.04971 3.36816 0 5.83531 0 9.42516V16.6616C0 20.816 2.64143 22.7556 6.08769 22.7556L18.3279 22.7545L16.0588 19.211H6.84387C4.88624 19.211 4.03337 18.5034 4.03337 16.3124V9.74709C4.03337 7.62908 4.75134 6.80284 6.89598 6.80284H16.1549L18.3337 3.36816H6.10796Z" fill="#18A7B9"/>
<path d="M70.0017 3.364C67.6579 3.364 65.2556 4.77273 65.2556 8.39616V9.32719C65.2556 13.1046 67.567 14.5458 69.8795 14.5556H77.9966C78.8397 14.5556 79.5246 14.6957 79.5246 16.1207L79.5235 17.7668C79.502 19.047 78.8634 19.34 77.9677 19.34H67.2891L65.1016 22.7515H78.219C81.3821 22.7515 83.5296 21.1777 83.5296 17.5427V16.207C83.5296 12.6924 81.5344 11.0318 78.4407 11.0318H70.6901C69.8309 11.0318 69.2322 10.7973 69.2322 9.52464V8.18424C69.2322 7.10034 69.6427 6.70488 70.6438 6.70488L80.8135 6.70082L82.939 3.35938L70.0017 3.364Z" fill="#18A7B9"/>
<path d="M50.4652 3.37402L41.2734 22.7557H45.6177L47.408 18.753H57.3965L59.181 22.7557H63.5444L54.3312 3.37402H50.4652ZM52.3927 7.39812L55.9246 15.4538H48.8833L52.3927 7.39812Z" fill="#18A7B9"/>
</svg>
