<svg width="118" height="29" viewBox="0 0 118 29" fill="none" xmlns="http://www.w3.org/2000/svg">
<path d="M110.611 0H94.9216C91.3923 0 88.5312 2.86106 88.5312 6.39035V22.0802C88.5312 25.6095 91.3923 28.4706 94.9216 28.4706H110.611C114.141 28.4706 117.002 25.6095 117.002 22.0802V6.39035C117.002 2.86106 114.141 0 110.611 0Z" fill="#18A7B9"/>
<path d="M99.4415 12.3151H97.1634V18.9866H99.4415V12.3151Z" fill="white"/>
<path d="M99.0585 9.20164C98.8414 9.07017 98.5862 9 98.3252 9C98.1511 9 97.9786 9.03124 97.8178 9.09194C97.657 9.15264 97.511 9.24159 97.3882 9.35367C97.2654 9.46576 97.1683 9.59878 97.1023 9.74507C97.0364 9.89136 97.0029 10.048 97.0039 10.2061C97.0054 10.443 97.0842 10.6742 97.2303 10.8705C97.3764 11.0668 97.5833 11.2194 97.8248 11.3091C98.0664 11.3988 98.3318 11.4216 98.5876 11.3745C98.8434 11.3275 99.0782 11.2127 99.2622 11.0448C99.4462 10.8768 99.5713 10.6631 99.6217 10.4306C99.6721 10.1982 99.6455 9.95744 99.5452 9.73872C99.445 9.51999 99.2756 9.3331 99.0585 9.20164Z" fill="white"/>
<path d="M103.098 12.3147H100.904L100.896 19H103.174V15.6987C103.174 14.8303 103.357 13.9895 104.541 13.9895C105.726 13.9895 105.726 14.9888 105.726 15.7607V18.9862H108.004V15.3265C108.004 13.5277 107.541 12.1493 105.263 12.1493C104.828 12.1339 104.398 12.2258 104.017 12.4151C103.635 12.6045 103.318 12.8842 103.098 13.2245V12.3147Z" fill="white"/>
<path d="M24.9118 0H3.55882C1.59613 0 0 1.59613 0 3.55882V24.9118C0 26.8745 1.59613 28.4706 3.55882 28.4706H24.9118C26.8745 28.4706 28.4706 26.8745 28.4706 24.9118V3.55882C28.4706 1.59613 26.8745 0 24.9118 0Z" fill="#18A7B9"/>
<path fill-rule="evenodd" clip-rule="evenodd" d="M18 12.6154H15.6667V10.7692C15.6667 10.2597 16.0848 10.3077 16.6 10.3077H17.5333V8H15.6667C14.9241 8 14.2119 8.29176 13.6868 8.81109C13.1617 9.33042 12.8667 10.0348 12.8667 10.7692V12.6154H11V14.9231H12.8667V20H15.6667V14.9231H17.0667L18 12.6154Z" fill="white"/>
<path d="M72.4688 24.5163C72.4688 25.5651 72.059 26.5709 71.3297 27.3124C70.6004 28.054 69.6113 28.4706 68.5799 28.4706H48.3576C47.3262 28.4706 46.3371 28.054 45.6078 27.3124C44.8785 26.5709 44.4688 25.5651 44.4688 24.5163V3.95425C44.4688 2.90552 44.8785 1.89974 45.6078 1.15817C46.3371 0.416607 47.3262 0 48.3576 0H68.5799C69.6113 0 70.6004 0.416607 71.3297 1.15817C72.059 1.89974 72.4688 2.90552 72.4688 3.95425V24.5163Z" fill="#18A7B9"/>
<path d="M63.8768 11.0042C63.4792 11.1894 62.9757 11.3633 62.5245 11.4211C62.9834 11.1349 63.7113 10.5391 63.8768 10C63.4481 10.2648 62.6728 10.5476 62.1671 10.6499C61.7632 10.1999 61.1871 10 60.5488 10C59.3228 10 58.4677 11.0918 58.4677 12.3684V13.3158C56.6647 13.3158 54.9067 11.8725 53.8127 10.4737C53.6149 10.8262 53.511 11.2283 53.5121 11.6375C53.5121 12.4992 54.2653 13.3736 54.8616 13.7895C54.4979 13.7776 53.8091 13.4858 53.5094 13.3158V13.3428C53.5094 14.464 54.2581 15.2252 55.2727 15.4374C55.0875 15.4909 54.8616 15.6842 53.9926 15.6842C54.2747 16.6008 55.6933 17.0854 56.6647 17.1053C55.9047 17.7244 54.5497 18.0526 53.5094 18.0526C53.3295 18.0526 53.2321 18.0631 53.0586 18.0417C54.0403 18.6954 55.4115 19 56.6647 19C60.7472 19 62.9753 15.7231 62.9753 12.6668C62.9753 12.5664 62.9721 12.2301 62.9671 12.1316C63.4035 11.8085 63.5802 11.4703 63.8768 11.0042Z" fill="white"/>
</svg>
